<?xml version="1.0" encoding="UTF-8"?>
<svg id="Calque_1" data-name="Calque 1" xmlns="http://www.w3.org/2000/svg" viewBox="0 0 945.67 162.14">
  <defs>
    <style>
      .cls-1 {
        fill: #3b705e;
      }

      .cls-1, .cls-2 {
        stroke-width: 0px;
      }

      .cls-2 {
        fill: #171513;
      }
    </style>
  </defs>
  <path class="cls-1" d="M204.85,62.71h12.16l12.4,40,12.32-40h10.08l12.56,40.08,7.6-24.88c2-6.72,3.04-10.8,2.16-15.2h11.28c.96,4.8-.32,9.92-3.12,18.32l-12.56,36.88h-11.12l-11.92-38.32-11.92,38.32h-11.12l-18.8-55.2Z"/>
  <path class="cls-1" d="M286.69,97.51c0-12.16,9.44-21.36,21.92-21.36s21.92,9.2,21.92,21.44c0,1.04-.08,2.56-.32,3.52h-32.4c1.36,5.28,5.52,8.72,11.12,8.72,4.24,0,7.92-1.92,9.68-4.56h11.28c-3.12,8.08-11.2,13.6-21.12,13.6-12.64,0-22.08-9.2-22.08-21.36ZM297.89,93.51h21.44c-1.28-4.96-5.44-8.32-10.72-8.32s-9.28,3.28-10.72,8.32Z"/>
  <path class="cls-2" d="M338.45,62.71h25.12c10.72,0,18.96,7.92,18.96,18.4s-8.24,18.4-18.96,18.4h-14.08v18.4h-11.04v-55.2ZM349.49,73.11v16h13.84c4.48,0,7.84-3.44,7.84-8s-3.36-8-7.84-8h-13.84Z"/>
  <path class="cls-2" d="M386.68,109.59c2.64-1.12,5.12-2.48,7.36-4.16-4.24-6.24-6.64-14.56-6.64-23.92,0-14.24,6.4-22.16,16-22.16s15.2,7.2,15.2,19.52c0,9.6-3.6,19.04-9.84,26.4,2.56,1.68,5.44,2.56,8.64,2.56h2.48v10.08h-3.04c-6.16,0-11.6-1.92-16.08-5.28-3.04,2.16-6.4,4-10.08,5.28l-4-8.32ZM401.89,97.43c3.84-5.44,6-11.84,6-18.56,0-6.16-1.76-9.44-4.64-9.44-3.12,0-5.12,3.6-5.12,11.36,0,6.32,1.36,12.08,3.76,16.64Z"/>
  <path class="cls-2" d="M423.25,97.51c0-12.16,9.44-21.36,21.92-21.36s21.92,9.2,21.92,21.44c0,1.04-.08,2.56-.32,3.52h-32.4c1.36,5.28,5.52,8.72,11.12,8.72,4.24,0,7.92-1.92,9.68-4.56h11.28c-3.12,8.08-11.2,13.6-21.12,13.6-12.64,0-22.08-9.2-22.08-21.36ZM434.45,93.51h21.44c-1.28-4.96-5.44-8.32-10.72-8.32s-9.28,3.28-10.72,8.32Z"/>
  <path class="cls-2" d="M474.36,77.11h10.4v4.24c3.04-3.44,7.12-5.2,12.08-5.2,5.84,0,10.48,2.64,12.96,7.04,3.2-4.56,8-7.04,14-7.04,8.96,0,14.96,6,14.96,15.2v13.04c0,2.16,1.28,3.44,3.44,3.44h.88v10.08h-2.96c-7.76,0-11.76-3.84-11.76-11.28v-12.16c0-4.96-3.12-8.24-8-8.24-5.12,0-8.56,3.36-8.56,8.4v23.28h-10.4v-23.44c0-4.96-3.2-8.24-8-8.24-5.12,0-8.64,3.36-8.64,8.4v23.28h-10.4v-40.8Z"/>
  <path class="cls-2" d="M546.52,97.51c0-12.16,9.44-21.36,21.92-21.36s21.92,9.2,21.92,21.44c0,1.04-.08,2.56-.32,3.52h-32.4c1.36,5.28,5.52,8.72,11.12,8.72,4.24,0,7.92-1.92,9.68-4.56h11.28c-3.12,8.08-11.2,13.6-21.12,13.6-12.64,0-22.08-9.2-22.08-21.36ZM557.72,93.51h21.44c-1.28-4.96-5.44-8.32-10.72-8.32s-9.28,3.28-10.72,8.32Z"/>
  <path class="cls-2" d="M597.64,77.11h10.4v4.56c3.2-3.6,7.68-5.52,12.96-5.52,9.6,0,15.92,6.24,15.92,15.84v12.4c0,2.16,1.28,3.44,3.44,3.44h.88v10.08h-2.96c-7.76,0-11.76-3.84-11.76-11.28v-11.28c0-5.52-3.52-9.12-8.88-9.12-5.76,0-9.6,3.68-9.6,9.28v22.4h-10.4v-40.8Z"/>
  <path class="cls-2" d="M649.8,105.03v-18.4h-6.48v-9.52h3.68c2.16,0,3.36-1.12,3.36-3.28v-7.6h9.84v10.88h9.44v9.52h-9.44v16.64c0,3.2,2,5.12,5.36,5.12h4.08v9.52h-5.6c-9.36,0-14.24-4.48-14.24-12.88Z"/>
</svg>